<?xml version="1.0" standalone="no"?>
<!DOCTYPE svg PUBLIC "-//W3C//DTD SVG 20010904//EN"
 "http://www.w3.org/TR/2001/REC-SVG-20010904/DTD/svg10.dtd">
<svg version="1.0" xmlns="http://www.w3.org/2000/svg"
 width="750.000000pt" height="750.000000pt" viewBox="0 0 750.000000 750.000000"
 preserveAspectRatio="xMidYMid meet">
<metadata>
Created by potrace 1.10, written by Peter Selinger 2001-2011
</metadata>
<g transform="translate(0.000000,750.000000) scale(0.100000,-0.100000)"
fill="#000000" stroke="none">
<path d="M3255 7121 c-33 -5 -96 -12 -140 -16 -44 -4 -92 -14 -107 -21 -15 -8
-38 -14 -51 -14 -13 0 -55 -12 -93 -26 -38 -14 -82 -29 -99 -34 -16 -4 -49
-18 -73 -29 -23 -12 -52 -26 -65 -31 -12 -6 -40 -21 -62 -33 -22 -13 -56 -32
-75 -42 -19 -11 -39 -26 -43 -32 -4 -7 -13 -13 -18 -13 -19 0 -173 -124 -249
-200 -96 -96 -196 -224 -255 -326 -25 -43 -50 -86 -55 -94 -6 -8 -13 -22 -16
-30 -4 -8 -19 -43 -35 -78 -16 -34 -29 -66 -29 -72 0 -5 -9 -28 -21 -50 -14
-27 -30 -42 -48 -46 -31 -6 -142 -38 -191 -55 -49 -16 -161 -64 -190 -81 -8
-4 -22 -11 -30 -15 -36 -16 -191 -115 -245 -158 -94 -71 -240 -221 -314 -320
-88 -118 -131 -191 -204 -345 -28 -58 -68 -172 -78 -218 -5 -24 -11 -47 -13
-51 -3 -4 -14 -52 -25 -106 -18 -82 -21 -135 -21 -316 0 -214 10 -306 42 -409
6 -19 15 -51 19 -70 7 -36 60 -183 77 -216 5 -11 19 -37 30 -59 11 -22 29 -56
41 -75 11 -19 26 -46 32 -60 6 -14 48 -76 95 -137 89 -119 95 -137 69 -200 -8
-19 -15 -48 -15 -63 0 -15 -6 -45 -14 -66 -7 -22 -19 -103 -26 -180 -14 -155
-2 -362 26 -458 8 -27 14 -62 14 -77 0 -16 6 -43 14 -61 7 -18 21 -58 31 -88
19 -62 28 -83 81 -195 107 -226 308 -477 483 -605 34 -25 61 -48 61 -52 0 -5
4 -8 9 -8 6 0 30 -14 54 -30 25 -17 48 -30 53 -30 4 0 15 -6 23 -14 16 -13
119 -67 176 -90 17 -7 47 -21 68 -30 21 -9 45 -16 55 -16 9 0 26 -7 36 -15 11
-8 32 -15 47 -15 15 0 40 -5 56 -11 120 -48 509 -66 686 -32 l87 16 83 -81
c133 -132 264 -227 407 -297 30 -15 77 -38 103 -51 27 -13 53 -24 59 -24 5 0
24 -6 41 -14 52 -23 129 -46 154 -46 14 0 34 -5 46 -12 22 -12 46 -15 280 -38
118 -11 137 -10 382 20 117 14 280 62 413 122 34 15 66 28 71 28 5 0 14 7 21
15 7 8 19 15 26 15 8 0 42 19 77 43 34 24 69 46 77 49 18 8 160 122 216 174
92 86 249 285 301 383 40 73 54 102 82 164 17 37 31 73 31 80 1 6 11 30 24 52
17 31 31 41 57 46 62 12 153 39 163 49 5 5 18 10 27 10 20 0 104 36 212 91
295 149 565 426 722 739 15 30 32 63 37 74 17 32 69 180 77 216 4 19 13 51 19
70 32 103 42 195 42 409 0 181 -3 234 -21 316 -11 54 -22 102 -25 106 -2 4 -8
27 -13 51 -18 87 -88 255 -150 358 -11 19 -24 42 -28 50 -3 8 -19 31 -35 51
-15 20 -28 40 -28 44 0 8 -56 83 -74 100 -6 6 -21 24 -33 41 -22 33 -21 59 6
127 6 16 11 41 11 56 0 15 6 47 14 72 36 109 36 489 0 616 -8 28 -14 62 -14
75 0 24 -22 98 -46 156 -8 18 -14 41 -14 51 0 10 -7 24 -15 31 -8 7 -15 18
-15 26 0 7 -16 46 -35 86 -38 77 -44 87 -87 156 -16 24 -28 45 -28 48 0 14
-156 207 -218 270 -132 135 -345 280 -522 356 -19 8 -52 23 -73 32 -21 9 -45
16 -55 16 -9 0 -26 7 -36 15 -11 8 -30 15 -42 15 -12 0 -44 6 -70 14 -126 37
-205 46 -409 46 -153 0 -223 -4 -280 -17 l-75 -16 -73 71 c-84 83 -103 99
-177 157 -56 43 -176 119 -214 136 -12 5 -28 13 -36 19 -33 21 -143 70 -157
70 -8 0 -27 6 -41 14 -39 20 -124 46 -149 46 -12 0 -37 6 -55 14 -67 29 -386
52 -503 37z m369 -457 c34 -8 84 -22 112 -30 28 -7 58 -14 66 -14 9 0 21 -7
28 -15 7 -8 18 -15 26 -15 12 0 130 -55 179 -83 65 -38 155 -103 155 -112 0
-10 -20 -25 -75 -56 -16 -9 -50 -28 -75 -42 -25 -15 -52 -30 -60 -34 -8 -4
-58 -32 -110 -63 -52 -31 -102 -59 -110 -63 -8 -4 -37 -21 -65 -37 -27 -17
-61 -36 -75 -43 -14 -6 -27 -14 -30 -18 -3 -4 -27 -18 -55 -33 -27 -15 -57
-31 -65 -36 -31 -20 -216 -126 -230 -133 -8 -4 -28 -16 -45 -27 -31 -20 -51
-31 -125 -72 -40 -22 -88 -50 -145 -85 -11 -7 -40 -23 -64 -35 -61 -32 -137
-102 -146 -135 -5 -16 -11 -224 -14 -463 l-6 -435 -47 -69 c-26 -37 -61 -98
-78 -135 -18 -36 -37 -75 -42 -86 -6 -11 -15 -33 -19 -50 -4 -16 -17 -61 -28
-100 -33 -111 -61 -289 -61 -385 0 -49 -4 -91 -8 -94 -5 -3 -24 5 -43 17 -40
25 -58 35 -119 69 -25 13 -64 36 -87 51 l-43 27 0 868 c0 814 1 873 19 962 21
103 28 127 75 240 100 247 276 452 514 602 46 28 168 88 181 88 6 0 22 6 34
13 12 8 49 21 82 30 33 9 85 22 115 31 79 21 402 22 484 0z m1505 -515 c64 -6
133 -17 154 -25 20 -8 48 -14 62 -14 13 0 39 -6 57 -14 18 -8 53 -22 78 -31
25 -9 52 -21 60 -26 8 -4 34 -17 57 -28 108 -50 277 -182 361 -281 81 -96 89
-105 119 -152 42 -65 51 -81 63 -106 5 -13 21 -46 34 -75 44 -98 73 -195 86
-292 5 -38 14 -88 20 -110 19 -78 4 -284 -23 -312 -7 -7 -18 -2 -82 37 -27 16
-57 33 -65 37 -8 4 -58 32 -110 63 -52 31 -102 59 -110 63 -8 4 -28 16 -45 27
-16 11 -37 23 -45 27 -8 3 -33 18 -55 32 -22 14 -58 35 -80 47 -22 11 -56 31
-75 43 -19 11 -42 24 -50 28 -8 4 -58 32 -110 63 -52 31 -102 59 -110 63 -8 4
-37 21 -65 38 -27 17 -62 35 -77 42 -16 6 -28 15 -28 19 0 4 -15 14 -32 22
-18 8 -55 29 -83 45 -27 17 -57 34 -65 38 -8 4 -35 19 -61 33 -73 44 -137 56
-204 40 -31 -7 -58 -17 -61 -22 -3 -5 -16 -14 -27 -19 -12 -5 -35 -18 -52 -29
-16 -11 -37 -23 -45 -27 -8 -4 -58 -32 -110 -63 -52 -31 -102 -59 -110 -63 -8
-4 -28 -16 -45 -27 -33 -21 -55 -33 -129 -73 -27 -15 -56 -33 -64 -39 -11 -10
-75 -12 -262 -10 -194 3 -260 1 -306 -11 -32 -8 -81 -20 -109 -26 -27 -7 -70
-21 -95 -32 -25 -11 -61 -27 -80 -36 -66 -29 -115 -56 -147 -79 -32 -24 -52
-30 -54 -16 0 4 -1 65 -1 136 l-1 129 29 24 c16 13 40 29 54 37 64 34 118 64
155 87 22 14 47 29 55 32 8 4 35 19 60 34 25 14 59 33 75 42 17 9 48 28 70 42
22 14 47 29 55 32 8 4 31 17 50 28 19 12 55 32 80 46 25 13 59 33 75 44 17 10
37 22 45 26 8 3 33 18 55 32 22 14 58 35 80 47 22 11 56 31 75 43 19 11 42 24
50 28 8 4 58 32 110 63 52 31 102 59 110 63 8 4 29 16 45 27 50 32 186 96 260
123 103 37 158 49 275 62 141 17 129 16 259 4z m-3459 -1513 c0 -794 0 -815
20 -859 22 -49 84 -110 146 -142 22 -11 93 -52 159 -91 66 -38 127 -73 135
-77 8 -4 22 -11 30 -17 23 -15 213 -126 230 -133 16 -8 88 -52 105 -64 6 -5
18 -26 28 -48 10 -22 25 -53 33 -68 8 -16 14 -33 14 -39 0 -16 86 -155 138
-223 64 -83 192 -208 284 -276 42 -31 83 -59 90 -62 14 -6 -19 -39 -57 -58
-11 -5 -29 -15 -40 -22 -95 -57 -117 -67 -144 -67 -16 0 -33 5 -36 11 -4 5
-17 14 -28 20 -12 5 -29 13 -37 19 -29 19 -220 130 -225 130 -2 0 -21 12 -42
26 -21 14 -47 30 -58 35 -11 5 -40 21 -65 36 -25 14 -58 33 -75 42 -16 9 -48
28 -70 42 -22 14 -47 29 -55 32 -8 4 -37 21 -65 37 -27 17 -63 37 -80 45 -16
9 -43 24 -60 35 -16 11 -39 24 -50 30 -11 6 -33 19 -50 30 -16 11 -43 26 -60
34 -16 8 -52 29 -80 45 -27 17 -59 35 -70 40 -11 5 -37 21 -58 35 -21 14 -41
26 -45 26 -7 0 -93 55 -189 122 -68 47 -176 157 -243 249 -115 156 -159 247
-224 464 -28 94 -39 280 -26 422 7 70 19 143 26 162 8 18 14 42 14 53 0 50 92
245 175 374 46 71 184 221 255 279 37 30 163 112 191 125 13 6 44 22 69 35 25
13 55 24 68 24 l22 1 0 -814z m3005 443 c4 -5 17 -14 28 -20 12 -5 29 -13 37
-19 8 -5 62 -37 120 -70 58 -33 112 -65 120 -70 8 -6 24 -14 35 -19 11 -5 37
-21 58 -35 21 -14 42 -26 47 -26 5 0 26 -12 47 -26 21 -14 47 -30 58 -35 11
-5 27 -13 35 -19 22 -15 212 -125 230 -133 8 -4 29 -16 45 -27 17 -10 50 -29
75 -42 25 -13 46 -26 48 -30 2 -4 27 -19 55 -33 29 -14 66 -35 82 -45 17 -11
37 -23 45 -27 8 -4 59 -33 113 -65 55 -32 101 -58 104 -58 11 0 134 -99 197
-159 68 -66 186 -211 186 -230 0 -5 6 -16 13 -23 11 -12 61 -110 93 -183 7
-16 20 -55 29 -85 10 -30 22 -68 27 -85 6 -16 17 -88 25 -160 12 -107 13 -153
3 -260 -6 -71 -17 -150 -25 -175 -46 -159 -52 -173 -108 -285 -36 -72 -111
-189 -146 -229 -108 -120 -222 -219 -315 -276 -62 -37 -194 -100 -211 -100
-13 0 -15 87 -15 809 l0 809 -24 54 c-26 59 -77 109 -148 146 -24 13 -52 28
-63 35 -57 35 -104 63 -140 83 -22 11 -56 31 -75 43 -19 11 -42 24 -50 28 -8
4 -85 49 -171 100 -148 87 -158 95 -179 140 -44 95 -56 119 -97 191 -40 68
-127 190 -145 203 -4 3 -19 20 -32 37 -20 28 -53 58 -161 150 -11 9 -44 33
-72 52 -29 19 -53 39 -53 44 0 10 26 32 55 46 11 6 34 19 50 30 17 11 40 24
52 29 11 5 24 15 28 20 3 6 24 11 45 11 21 0 42 -5 45 -11z m-1294 -906 c74
-23 123 -56 154 -100 21 -32 25 -49 25 -116 0 -65 -4 -84 -25 -117 -14 -21
-38 -49 -55 -61 -16 -13 -30 -26 -30 -30 0 -4 20 -17 45 -29 109 -53 162 -172
135 -303 -14 -65 -61 -139 -103 -163 -99 -56 -90 -55 -386 -52 l-276 3 -3 470
c-1 259 0 480 3 493 l5 22 229 0 c187 0 238 -3 282 -17z m959 -3 c53 -15 157
-64 185 -88 60 -51 101 -122 130 -227 26 -92 15 -299 -21 -400 -10 -28 -80
-122 -109 -147 -20 -17 -108 -62 -175 -89 -27 -11 -93 -14 -280 -14 l-245 0
-3 470 c-1 259 0 481 3 493 l6 24 232 -5 c137 -3 250 -10 277 -17z m815 -400
c17 -10 52 -31 80 -45 27 -15 66 -38 87 -51 l38 -24 0 -863 c0 -723 -3 -873
-15 -932 -8 -38 -15 -81 -15 -95 0 -15 -5 -31 -11 -37 -6 -6 -15 -30 -20 -53
-5 -24 -20 -66 -33 -94 -14 -28 -27 -58 -31 -66 -3 -8 -11 -24 -18 -35 -7 -11
-25 -43 -41 -70 -118 -202 -315 -378 -541 -485 -119 -56 -145 -65 -316 -105
-91 -21 -370 -21 -453 1 -34 8 -88 22 -121 30 -33 9 -73 22 -88 30 -16 8 -33
14 -38 14 -19 0 -145 66 -207 107 -35 24 -67 43 -71 43 -4 0 -17 10 -29 23
-21 23 -22 24 -4 40 10 9 38 27 62 40 25 13 61 34 80 46 19 11 42 24 50 28 15
7 200 114 230 133 8 5 32 18 52 29 21 11 57 33 80 48 24 15 61 37 83 49 22 11
56 31 75 43 19 11 42 24 50 28 8 3 33 18 55 32 22 14 58 35 80 47 22 11 56 31
75 42 19 12 49 28 65 36 42 21 107 59 210 123 11 7 40 23 65 35 54 28 134 104
146 138 4 14 10 221 13 460 l6 435 41 60 c41 60 66 105 99 180 10 22 24 52 32
67 7 14 13 35 13 46 0 12 4 23 9 27 5 3 12 20 16 38 4 17 13 55 20 82 23 82
45 245 45 331 0 44 3 83 6 87 6 6 30 -5 89 -43z m-3830 -1021 c11 -5 27 -13
35 -19 22 -15 212 -125 230 -133 8 -4 29 -16 45 -27 17 -11 37 -23 45 -27 8
-3 33 -18 55 -32 22 -14 58 -35 80 -47 22 -11 56 -31 75 -43 19 -11 42 -24 50
-28 8 -4 58 -32 110 -63 52 -31 102 -59 110 -63 8 -4 35 -19 60 -34 25 -14 59
-33 75 -42 17 -9 48 -28 70 -42 22 -14 47 -28 55 -32 8 -4 22 -11 30 -17 63
-42 173 -99 214 -110 59 -16 126 -3 196 39 25 15 52 30 60 34 8 4 29 16 45 27
17 11 37 23 45 27 8 4 47 25 85 48 39 22 77 44 85 48 8 4 29 16 45 27 17 11
39 24 50 29 11 5 37 21 58 35 21 14 43 26 49 26 6 0 20 8 31 17 17 16 43 18
271 15 244 -3 253 -2 341 23 50 14 105 30 124 35 18 5 38 13 44 19 6 6 18 11
27 11 17 0 125 54 193 97 62 39 67 32 67 -113 l0 -126 -31 -29 c-16 -15 -42
-34 -57 -42 -40 -20 -122 -65 -162 -89 -19 -11 -53 -31 -75 -42 -22 -12 -58
-33 -80 -47 -22 -14 -47 -28 -55 -32 -8 -4 -22 -11 -30 -17 -8 -5 -73 -44
-145 -85 -71 -41 -137 -80 -145 -85 -8 -6 -24 -14 -35 -19 -11 -5 -37 -21 -58
-35 -21 -14 -42 -26 -47 -26 -5 0 -28 -12 -52 -27 -57 -37 -75 -47 -128 -76
-25 -14 -61 -34 -80 -46 -19 -11 -55 -32 -80 -46 -25 -14 -60 -35 -79 -46
-109 -65 -303 -149 -346 -149 -14 0 -42 -7 -63 -17 -56 -25 -469 -25 -526 0
-21 9 -48 17 -61 17 -12 0 -53 12 -91 26 -38 14 -78 28 -89 31 -11 3 -27 11
-35 17 -8 7 -35 22 -60 34 -61 31 -73 38 -164 106 -79 59 -236 210 -236 227 0
5 -8 17 -18 27 -45 45 -147 232 -181 332 -38 111 -81 337 -81 426 0 65 16 169
31 196 8 16 12 15 47 -8 20 -14 46 -30 57 -35z"/>
<path d="M3064 4027 c-2 -7 -3 -60 -2 -118 l3 -104 120 -2 c133 -3 146 2 179
65 33 64 -12 151 -85 166 -60 12 -209 7 -215 -7z"/>
<path d="M3065 3638 c-3 -8 -4 -72 -3 -144 l3 -129 112 -3 c70 -2 132 2 165
11 46 11 55 18 72 53 38 76 17 167 -47 201 -44 24 -294 33 -302 11z"/>
<path d="M4027 4003 c-4 -3 -7 -145 -7 -314 l0 -309 26 -6 c14 -4 76 -4 138
-2 98 5 117 8 153 31 49 31 75 65 103 138 19 46 21 70 18 169 -3 102 -6 122
-31 173 -30 61 -50 76 -142 109 -49 18 -243 26 -258 11z"/>
</g>
</svg>
